<svg width="20" height="20" viewBox="0 0 20 20" fill="none" xmlns="http://www.w3.org/2000/svg">
<path d="M14.1668 3.33789C13.7066 3.33789 13.3335 3.71099 13.3335 4.17122C13.3335 4.63146 13.7066 5.00456 14.1668 5.00456H17.5002C17.9604 5.00456 18.3335 4.63146 18.3335 4.17122C18.3335 3.71099 17.9604 3.33789 17.5002 3.33789H14.1668Z" fill="#777E91"/>
<path fill-rule="evenodd" clip-rule="evenodd" d="M11.6665 10.8366C11.6665 8.53542 13.532 6.66992 15.8332 6.66992C18.1343 6.66992 19.9998 8.53542 19.9998 10.8366V11.6699C19.9998 12.1302 19.6268 12.5033 19.1665 12.5033H13.3332C13.3332 13.884 14.4524 15.0033 15.8332 15.0033C16.4144 15.0033 16.9493 14.8049 17.3738 14.4723C17.5956 14.2984 17.8576 14.1699 18.1394 14.1699C18.8535 14.1699 19.3104 14.9075 18.8108 15.4178C18.0545 16.1904 16.9998 16.6699 15.8332 16.6699C13.532 16.6699 11.6665 14.8044 11.6665 12.5033V10.8366ZM15.8332 8.33659C14.4524 8.33659 13.3332 9.45584 13.3332 10.8366H18.3332C18.3332 9.45584 17.2139 8.33659 15.8332 8.33659Z" fill="#777E91"/>
<path fill-rule="evenodd" clip-rule="evenodd" d="M1.66667 5.00456V8.33789H5.83333C6.75381 8.33789 7.5 7.5917 7.5 6.67122C7.5 5.75075 6.75381 5.00456 5.83333 5.00456H1.66667ZM8.16648 9.05189C8.78375 8.44689 9.16667 7.60378 9.16667 6.67122C9.16667 4.83027 7.67428 3.33789 5.83333 3.33789H1.33333C0.596953 3.33789 0 3.93485 0 4.67122V15.2426C0 16.0316 0.639594 16.6712 1.42858 16.6712H5.83333C8.13452 16.6712 10 14.8057 10 12.5046C10 11.0678 9.27283 9.80097 8.16648 9.05189ZM1.66667 10.0046V15.0046H5.83333C7.21404 15.0046 8.33333 13.8853 8.33333 12.5046C8.33333 11.1238 7.21404 10.0046 5.83333 10.0046H1.66667Z" fill="#777E91"/>
</svg>
