<?xml version="1.0" standalone="no"?>
<!DOCTYPE svg PUBLIC "-//W3C//DTD SVG 20010904//EN"
 "http://www.w3.org/TR/2001/REC-SVG-20010904/DTD/svg10.dtd">
<svg version="1.0" xmlns="http://www.w3.org/2000/svg"
 width="511.000000pt" height="487.000000pt" viewBox="0 0 511.000000 487.000000"
 preserveAspectRatio="xMidYMid meet">

<g transform="translate(0.000000,487.000000) scale(0.100000,-0.100000)"
fill="#000000" stroke="none">
<path d="M672 4748 c-17 -17 -18 -1468 0 -1486 9 -9 116 -12 419 -12 357 0
410 2 423 16 14 13 16 60 16 354 0 294 2 341 16 354 14 14 112 16 932 16 586
0 940 -4 981 -11 233 -37 421 -198 477 -406 19 -74 19 -211 -1 -286 -41 -157
-142 -276 -297 -351 -168 -81 -44 -76 -1878 -76 -1105 0 -1638 -3 -1651 -10
-18 -10 -19 -24 -19 -294 0 -224 3 -286 13 -295 10 -7 301 -11 1009 -13 826
-3 998 -5 1011 -17 15 -12 17 -64 17 -557 0 -480 2 -544 16 -558 13 -14 56
-16 320 -16 191 0 313 4 325 10 18 10 19 27 19 559 0 498 2 550 17 562 22 19
536 18 668 0 293 -41 509 -210 591 -465 35 -106 43 -266 20 -376 -45 -213
-198 -392 -404 -473 -149 -57 -149 -57 -1196 -57 -688 0 -963 3 -973 11 -10 9
-13 105 -13 503 0 292 -4 497 -10 506 -8 13 -67 15 -415 18 -273 2 -412 -1
-425 -8 -20 -11 -20 -22 -20 -894 0 -741 2 -885 14 -895 10 -9 397 -11 1527
-8 l1514 3 115 26 c319 73 560 206 773 425 203 209 330 474 367 765 47 381
-78 751 -342 1010 -72 72 -247 198 -273 198 -6 0 -16 5 -23 12 -8 8 0 18 33
39 74 47 203 178 260 264 108 162 162 329 171 535 8 158 -11 289 -65 450 -74
221 -161 361 -331 530 -197 198 -415 318 -695 381 l-100 23 -1460 3 c-1147 3
-1463 1 -1473 -9z"/>
</g>
</svg>
