<svg width="21" height="20" viewBox="0 0 21 20" fill="none" xmlns="http://www.w3.org/2000/svg">
<path fill-rule="evenodd" clip-rule="evenodd" d="M2.38021 2.5C2.84045 2.5 3.21354 2.8731 3.21354 3.33333V15C3.21354 15.4602 3.58664 15.8333 4.04687 15.8333H19.0469C19.5071 15.8333 19.8802 16.2064 19.8802 16.6667C19.8802 17.1269 19.5071 17.5 19.0469 17.5H4.04687C2.66616 17.5 1.54688 16.3807 1.54688 15V3.33333C1.54688 2.8731 1.91997 2.5 2.38021 2.5Z" fill="#777E91"/>
<path d="M15.7142 4.16699C15.254 4.16699 14.8809 4.54009 14.8809 5.00033V13.3337C14.8809 13.7939 15.254 14.167 15.7142 14.167C16.1744 14.167 16.5475 13.7939 16.5475 13.3337V5.00033C16.5475 4.54009 16.1744 4.16699 15.7142 4.16699Z" fill="#777E91"/>
<path d="M9.04753 5.83366C8.58729 5.83366 8.21419 6.20675 8.21419 6.66699V13.3337C8.21419 13.7939 8.58729 14.167 9.04753 14.167C9.50776 14.167 9.88086 13.7939 9.88086 13.3337V6.66699C9.88086 6.20675 9.50776 5.83366 9.04753 5.83366Z" fill="#777E91"/>
<path d="M5.71419 10.8337C5.25396 10.8337 4.88086 11.2068 4.88086 11.667V13.3337C4.88086 13.7939 5.25396 14.167 5.71419 14.167C6.17443 14.167 6.54753 13.7939 6.54753 13.3337V11.667C6.54753 11.2068 6.17443 10.8337 5.71419 10.8337Z" fill="#777E91"/>
<path d="M11.5475 8.33366C11.5475 7.87342 11.9206 7.50033 12.3809 7.50033C12.8411 7.50033 13.2142 7.87342 13.2142 8.33366V13.3337C13.2142 13.7939 12.8411 14.167 12.3809 14.167C11.9206 14.167 11.5475 13.7939 11.5475 13.3337V8.33366Z" fill="#777E91"/>
</svg>
