<svg width="41" height="40" viewBox="0 0 41 40" fill="none" xmlns="http://www.w3.org/2000/svg">
<path fill-rule="evenodd" clip-rule="evenodd" d="M17.2881 0.85942C19.3948 -0.286473 21.9386 -0.286474 24.0452 0.85942L36.258 7.50256C38.5336 8.74033 39.9501 11.1233 39.9501 13.7137V26.2863C39.9501 28.8767 38.5336 31.2597 36.258 32.4974L24.0452 39.1406C21.9386 40.2865 19.3948 40.2865 17.2881 39.1406L5.07533 32.4974C2.79981 31.2597 1.3833 28.8767 1.3833 26.2863L1.3833 13.7137C1.3833 11.1233 2.79981 8.74033 5.07533 7.50256L17.2881 0.85942Z" fill="#2A5ADA"/>
<g clip-path="url(#clip0_3239_43478)">
<path d="M20.6667 36C29.5033 36 36.6667 28.8366 36.6667 20C36.6667 11.1634 29.5033 4 20.6667 4C11.8302 4 4.66675 11.1634 4.66675 20C4.66675 28.8366 11.8302 36 20.6667 36Z" fill="#2A5ADA"/>
<path d="M20.1667 10L18.3677 11.055L13.4667 13.945L11.6667 15V25L13.4657 26.055L18.4127 28.945L20.2117 30L22.0107 28.945L26.8677 26.055L28.6667 25V15L26.8677 13.945L21.9657 11.055L20.1667 10ZM15.2647 22.89V17.11L20.1667 14.22L25.0687 17.11V22.89L20.1667 25.78L15.2647 22.89Z" fill="white"/>
</g>
<defs>
<clipPath id="clip0_3239_43478">
<rect width="32" height="32" fill="white" transform="translate(4.66675 4)"/>
</clipPath>
</defs>
</svg>
