<svg width="41" height="40" viewBox="0 0 41 40" fill="none" xmlns="http://www.w3.org/2000/svg">
<path fill-rule="evenodd" clip-rule="evenodd" d="M16.9549 0.85942C19.0615 -0.286473 21.6054 -0.286474 23.712 0.85942L35.9248 7.50256C38.2003 8.74033 39.6168 11.1233 39.6168 13.7137V26.2863C39.6168 28.8767 38.2003 31.2597 35.9248 32.4974L23.712 39.1406C21.6054 40.2865 19.0615 40.2865 16.9549 39.1406L4.74208 32.4974C2.46656 31.2597 1.05005 28.8767 1.05005 26.2863L1.05005 13.7137C1.05005 11.1233 2.46655 8.74033 4.74208 7.50256L16.9549 0.85942Z" fill="#00ACED"/>
<g clip-path="url(#clip0_3239_43494)">
<path d="M20.3335 36C29.1701 36 36.3335 28.8366 36.3335 20C36.3335 11.1634 29.1701 4 20.3335 4C11.4969 4 4.3335 11.1634 4.3335 20C4.3335 28.8366 11.4969 36 20.3335 36Z" fill="#00ACED"/>
<path fill-rule="evenodd" clip-rule="evenodd" d="M10.3335 14V18.076L20.2285 23.791L26.6485 20.076V23.391L30.1045 25.429V14L20.2195 19.715L10.3335 14Z" fill="white"/>
<path opacity="0.7" fill-rule="evenodd" clip-rule="evenodd" d="M20.2195 8L10.3335 13.714V25.143L20.2195 30.857L30.0765 25.143L26.5815 23.105L20.2195 26.781L13.8295 23.105V15.752L20.2195 12.076L26.5815 15.752L30.0765 13.714L20.2195 8Z" fill="white"/>
</g>
<defs>
<clipPath id="clip0_3239_43494">
<rect width="32" height="32" fill="white" transform="translate(4.3335 4)"/>
</clipPath>
</defs>
</svg>
