<svg xmlns="http://www.w3.org/2000/svg" width="939" height="579" viewBox="0 0 939 579" fill="none">
<path d="M4.69526 434.901C13.3818 469.204 37.6898 497.864 74.2924 520.308C110.898 542.754 159.771 558.962 217.512 568.358C332.991 587.148 483.84 578.67 642.676 538.448C801.512 498.225 938.215 433.885 1030.83 362.397C1077.14 326.653 1112.41 289.137 1133.92 251.974C1155.43 214.815 1163.17 178.039 1154.48 143.736C1145.8 109.434 1121.49 80.7732 1084.88 58.3292C1048.28 35.8836 999.406 19.675 941.665 10.2797C826.186 -8.51071 675.337 -0.0329079 516.501 40.1897C357.665 80.4123 220.962 144.752 128.344 216.24C82.034 251.984 46.7655 289.501 25.255 326.663C3.74604 363.823 -3.99132 400.598 4.69526 434.901Z" stroke="url(#paint0_linear_119_1167)"/>
<path d="M4.69526 434.901C13.3818 469.204 37.6898 497.864 74.2924 520.308C110.898 542.754 159.771 558.962 217.512 568.358C332.991 587.148 483.84 578.67 642.676 538.448C801.512 498.225 938.215 433.885 1030.83 362.397C1077.14 326.653 1112.41 289.137 1133.92 251.974C1155.43 214.815 1163.17 178.039 1154.48 143.736C1145.8 109.434 1121.49 80.7732 1084.88 58.3292C1048.28 35.8836 999.406 19.675 941.665 10.2797C826.186 -8.51071 675.337 -0.0329079 516.501 40.1897C357.665 80.4123 220.962 144.752 128.344 216.24C82.034 251.984 46.7655 289.501 25.255 326.663C3.74604 363.823 -3.99132 400.598 4.69526 434.901Z" stroke="url(#paint1_linear_119_1167)"/>
<defs>
<linearGradient id="paint0_linear_119_1167" x1="1114.66" y1="123.871" x2="118.605" y2="537.1" gradientUnits="userSpaceOnUse">
<stop stop-color="#ffff"/>
<stop offset="0.491388" stop-color="#ffff" stop-opacity="0.36"/>
<stop offset="1" stop-color="#ffff"/>
</linearGradient>
<linearGradient id="paint1_linear_119_1167" x1="-294.5" y1="572.5" x2="642.799" y2="538.932" gradientUnits="userSpaceOnUse">
<stop stop-color="#194adf" stop-opacity="0.65"/>
<stop offset="1" stop-color="#194adf" stop-opacity="0"/>
</linearGradient>
</defs>
</svg>
