<svg width="20" height="20" viewBox="0 0 20 20" fill="none" xmlns="http://www.w3.org/2000/svg">
<path fill-rule="evenodd" clip-rule="evenodd" d="M9.99984 16.6699C13.6818 16.6699 16.6665 13.6852 16.6665 10.0033C16.6665 6.32136 13.6818 3.33659 9.99984 3.33659C6.31794 3.33659 3.33317 6.32136 3.33317 10.0033C3.33317 13.6852 6.31794 16.6699 9.99984 16.6699ZM9.99984 18.3366C14.6022 18.3366 18.3332 14.6056 18.3332 10.0033C18.3332 5.40088 14.6022 1.66992 9.99984 1.66992C5.39746 1.66992 1.6665 5.40088 1.6665 10.0033C1.6665 14.6056 5.39746 18.3366 9.99984 18.3366Z" fill="#777E91"/>
<path d="M12.895 17.8209C12.5991 15.7124 12.1061 13.7988 11.4122 11.9899C9.71359 12.8134 7.81375 14.2524 5.20145 16.8183C4.7444 16.4958 4.32125 16.1285 3.93837 15.7229C6.682 13.0172 8.7775 11.3995 10.7633 10.4528C10.5085 9.90052 10.2338 9.35611 9.939 8.81669C7.6011 9.55352 4.9354 9.94177 1.6665 9.99727C1.66696 9.42527 1.72507 8.86669 1.83532 8.32708C4.72026 8.26527 7.05402 7.93137 9.07392 7.33791C8.13635 5.83349 7.03747 4.34852 5.77459 2.81991C6.26701 2.52967 6.79189 2.28862 7.34245 2.10352C8.61684 3.66982 9.73342 5.20925 10.6896 6.78357C12.486 6.07352 14.0783 5.11522 15.6677 3.89513C16.0763 4.27433 16.4467 4.69402 16.7726 5.14779C15.1194 6.42654 13.4336 7.46296 11.5242 8.24426C11.8052 8.76902 12.0688 9.29961 12.315 9.83811C14.2038 9.23969 16.0631 9.17786 18.2921 9.17152C18.3193 9.44536 18.3332 9.72319 18.3332 10.0042C18.3332 10.2858 18.3192 10.5641 18.2919 10.8385C16.1383 10.8462 14.5412 10.9069 12.9639 11.3817C13.6412 13.1446 14.1422 15.0084 14.4638 17.0423C13.9733 17.354 13.448 17.6159 12.895 17.8209Z" fill="#777E91"/>
</svg>
