<svg width="20" height="20" viewBox="0 0 20 20" fill="none" xmlns="http://www.w3.org/2000/svg">
<path fill-rule="evenodd" clip-rule="evenodd" d="M9.99984 16.6699C13.6818 16.6699 16.6665 13.6852 16.6665 10.0033C16.6665 6.32136 13.6818 3.33659 9.99984 3.33659C6.31794 3.33659 3.33317 6.32136 3.33317 10.0033C3.33317 13.6852 6.31794 16.6699 9.99984 16.6699ZM9.99984 18.3366C14.6022 18.3366 18.3332 14.6056 18.3332 10.0033C18.3332 5.40088 14.6022 1.66992 9.99984 1.66992C5.39746 1.66992 1.6665 5.40088 1.6665 10.0033C1.6665 14.6056 5.39746 18.3366 9.99984 18.3366Z" fill="#777E91"/>
<path d="M9.99984 8.33789C9.99984 7.87766 10.3729 7.50456 10.8332 7.50456H11.6665C12.1268 7.50456 12.4998 7.13147 12.4998 6.67122C12.4998 6.21099 12.1268 5.83789 11.6665 5.83789H10.8332C9.45242 5.83789 8.33317 6.95718 8.33317 8.33789V10.0046H7.49984C7.0396 10.0046 6.6665 10.3776 6.6665 10.8379C6.6665 11.2981 7.0396 11.6712 7.49984 11.6712H8.33317V16.6712C8.33317 17.1315 8.70625 17.5046 9.1665 17.5046C9.62675 17.5046 9.99984 17.1315 9.99984 16.6712V11.6712H11.6665C12.1268 11.6712 12.4998 11.2981 12.4998 10.8379C12.4998 10.3776 12.1268 10.0046 11.6665 10.0046H9.99984V8.33789Z" fill="#777E91"/>
</svg>
