<svg width="21" height="20" viewBox="0 0 21 20" fill="none" xmlns="http://www.w3.org/2000/svg">
<path fill-rule="evenodd" clip-rule="evenodd" d="M10.429 16.667C14.1109 16.667 17.0957 13.6822 17.0957 10.0003C17.0957 6.31843 14.1109 3.33366 10.429 3.33366C6.74714 3.33366 3.76237 6.31843 3.76237 10.0003C3.76237 13.6822 6.74714 16.667 10.429 16.667ZM10.429 18.3337C15.0314 18.3337 18.7624 14.6027 18.7624 10.0003C18.7624 5.39795 15.0314 1.66699 10.429 1.66699C5.82666 1.66699 2.0957 5.39795 2.0957 10.0003C2.0957 14.6027 5.82666 18.3337 10.429 18.3337Z" fill="#777E91"/>
<path d="M9.5957 5.83333C9.5957 5.3731 9.9688 5 10.429 5C10.8893 5 11.2624 5.3731 11.2624 5.83333C12.6431 5.83333 13.7624 6.95262 13.7624 8.33333C13.7624 8.79357 13.3893 9.16667 12.929 9.16667C12.4688 9.16667 12.0957 8.79357 12.0957 8.33333C12.0957 7.8731 11.7226 7.5 11.2624 7.5H9.38188C9.03974 7.5 8.76237 7.77737 8.76237 8.11951C8.76237 8.38617 8.933 8.62291 9.18598 8.70724L12.1991 9.71162C13.1327 10.0228 13.7624 10.8964 13.7624 11.8805C13.7624 13.1431 12.7388 14.1667 11.4762 14.1667H11.2624C11.2624 14.6269 10.8893 15 10.429 15C9.9688 15 9.5957 14.6269 9.5957 14.1667C8.21499 14.1667 7.0957 13.0474 7.0957 11.6667C7.0957 11.2064 7.4688 10.8333 7.92904 10.8333C8.38927 10.8333 8.76237 11.2064 8.76237 11.6667C8.76237 12.1269 9.13547 12.5 9.5957 12.5H11.4762C11.8183 12.5 12.0957 12.2226 12.0957 11.8805C12.0957 11.6138 11.9251 11.3771 11.6721 11.2928L8.65893 10.2884C7.72539 9.97719 7.0957 9.10356 7.0957 8.11951C7.0957 6.85689 8.11926 5.83333 9.38188 5.83333H9.5957Z" fill="#777E91"/>
</svg>
