<svg width="20" height="20" viewBox="0 0 20 20" fill="none" xmlns="http://www.w3.org/2000/svg">
<path fill-rule="evenodd" clip-rule="evenodd" d="M13.3332 3.33659H6.6665C4.82555 3.33659 3.33317 4.82897 3.33317 6.66992V13.3366C3.33317 15.1775 4.82555 16.6699 6.6665 16.6699H13.3332C15.1741 16.6699 16.6665 15.1775 16.6665 13.3366V6.66992C16.6665 4.82897 15.1741 3.33659 13.3332 3.33659ZM6.6665 1.66992C3.90508 1.66992 1.6665 3.9085 1.6665 6.66992V13.3366C1.6665 16.098 3.90508 18.3366 6.6665 18.3366H13.3332C16.0946 18.3366 18.3332 16.098 18.3332 13.3366V6.66992C18.3332 3.9085 16.0946 1.66992 13.3332 1.66992H6.6665Z" fill="#777E91"/>
<path d="M14.1668 6.67057C14.6271 6.67057 15.0002 6.29747 15.0002 5.83724C15.0002 5.37701 14.6271 5.00391 14.1668 5.00391C13.7066 5.00391 13.3335 5.37701 13.3335 5.83724C13.3335 6.29747 13.7066 6.67057 14.1668 6.67057Z" fill="#777E91"/>
<path fill-rule="evenodd" clip-rule="evenodd" d="M14.1668 10.0046C14.1668 12.3057 12.3013 14.1712 10.0002 14.1712C7.69898 14.1712 5.8335 12.3057 5.8335 10.0046C5.8335 7.70337 7.69898 5.83789 10.0002 5.83789C12.3013 5.83789 14.1668 7.70337 14.1668 10.0046ZM12.5002 10.0046C12.5002 11.3853 11.3809 12.5046 10.0002 12.5046C8.61941 12.5046 7.50016 11.3853 7.50016 10.0046C7.50016 8.62381 8.61941 7.50456 10.0002 7.50456C11.3809 7.50456 12.5002 8.62381 12.5002 10.0046Z" fill="#777E91"/>
</svg>
