<svg width="20" height="20" viewBox="0 0 20 20" fill="none" xmlns="http://www.w3.org/2000/svg">
<path fill-rule="evenodd" clip-rule="evenodd" d="M2.65067 11.6704C1.27257 11.6743 0.382969 13.2442 1.23197 14.4337C2.44782 16.1369 4.65261 17.5039 8.33346 17.5039C14.0377 17.5039 18.6165 12.8553 17.9755 7.36316L18.9146 5.48499C19.5659 4.18247 18.4342 2.70076 17.0062 2.98636L15.7655 3.23448C15.4366 3.06093 15.0962 2.92996 14.8053 2.83508C14.2383 2.65017 13.552 2.50391 12.9168 2.50391C11.7757 2.50391 10.7909 2.79666 10.0082 3.38385C9.23446 3.96444 8.79862 4.72745 8.55946 5.42811C8.44921 5.75108 8.37579 6.07502 8.32868 6.38593C7.88596 6.2466 7.43453 6.05912 6.99258 5.8302C5.98992 5.31084 5.17912 4.65242 4.72175 4.07516C3.95439 3.10666 2.32819 3.17846 1.75754 4.43741C0.953258 6.2118 1.17388 8.31512 1.89683 10.0147C2.13915 10.5842 2.45436 11.1473 2.83945 11.6692C2.77352 11.6699 2.71046 11.6702 2.65067 11.6704ZM8.33337 15.8372C5.11392 15.8372 3.4492 14.6712 2.58841 13.4653C2.54973 13.4112 2.58873 13.3372 2.65529 13.3371C3.53099 13.3346 5.32849 13.2932 6.51399 12.5993C6.5753 12.5634 6.56181 12.473 6.49447 12.4504C3.731 11.5212 2.16014 7.58606 3.27546 5.12549C3.30103 5.06907 3.37687 5.06163 3.41534 5.11019C4.6894 6.71822 7.47507 8.29324 9.89871 8.33633C9.95129 8.33724 9.99104 8.28949 9.98304 8.23751C9.88538 7.60435 9.51246 4.17057 12.9167 4.17057C13.7296 4.17057 14.9391 4.5671 15.3846 4.97332C15.4052 4.9921 15.4331 5.00062 15.4605 4.99516L17.333 4.62066C17.401 4.60706 17.4549 4.67761 17.4239 4.73964L16.2625 7.0624C16.2544 7.07852 16.2519 7.09703 16.255 7.11479C17.0684 11.6872 13.3234 15.8372 8.33337 15.8372Z" fill="#777E91"/>
</svg>
