<svg width="17" height="16" viewBox="0 0 17 16" fill="none" xmlns="http://www.w3.org/2000/svg">
<g clip-path="url(#clip0_3375_63868)">
<path d="M7.37187 4.37307C6.97521 4.19537 6.54787 4.00391 5.83333 4.00391C3.16667 4.00391 2.50002 6.67071 2.5 9.33724C2.49998 12.0038 4.5 15.3372 5.83333 15.3372C6.61438 15.3372 7.16667 15.1085 7.6242 14.919C7.94773 14.785 8.22387 14.6706 8.5 14.6706C8.77613 14.6706 9.05227 14.785 9.3758 14.919C9.83333 15.1085 10.3856 15.3372 11.1667 15.3372C12.1185 15.3372 13.4101 13.6386 14.0713 11.6964C14.1378 11.5008 14.002 11.299 13.8025 11.2451C12.6681 10.9385 11.8333 9.90204 11.8333 8.67057C11.8333 7.50857 12.5766 6.52011 13.6137 6.15475C13.8106 6.08536 13.9321 5.86969 13.8393 5.68261C13.34 4.67594 12.5053 4.00391 11.1667 4.00391C10.4521 4.00391 10.0248 4.19537 9.62813 4.37307C9.2846 4.52698 8.96413 4.67057 8.5 4.67057C8.03587 4.67057 7.7154 4.52698 7.37187 4.37307Z" fill="#FCFCFD"/>
<path d="M8.5 3.16992C8.5 1.78921 9.61927 0.669922 11 0.669922C11.0921 0.669922 11.1667 0.744542 11.1667 0.836589C11.1667 2.2173 10.0474 3.33659 8.66667 3.33659C8.5746 3.33659 8.5 3.26197 8.5 3.16992Z" fill="#FCFCFD"/>
</g>
<defs>
<clipPath id="clip0_3375_63868">
<rect width="16" height="16" fill="white" transform="translate(0.5 0.00390625)"/>
</clipPath>
</defs>
</svg>
