<svg width="17" height="16" viewBox="0 0 17 16" fill="none" xmlns="http://www.w3.org/2000/svg">
<path d="M14.8982 6.79205H8.53484V9.51956H12.1415C11.5648 11.3379 10.1407 11.9437 8.50567 11.9437C7.87209 11.9445 7.24765 11.7925 6.68536 11.5005C6.12306 11.2085 5.6395 10.7852 5.27569 10.2665C4.91187 9.74774 4.67856 9.14891 4.59552 8.52079C4.51249 7.89266 4.5822 7.25378 4.79873 6.65834C5.01526 6.0629 5.37222 5.52848 5.83933 5.10041C6.30644 4.67235 6.86992 4.36327 7.48195 4.19941C8.09398 4.03555 8.73651 4.02174 9.35502 4.15914C9.97353 4.29655 10.5498 4.58113 11.0348 4.98872L13.0165 3.10122C12.2185 2.36609 11.2531 1.83685 10.2041 1.55945C9.15511 1.28205 8.05428 1.26487 6.99717 1.50941C5.94005 1.75395 4.9586 2.25282 4.13801 2.9627C3.31743 3.67258 2.68251 4.57202 2.28838 5.58294C1.89425 6.59386 1.75282 7.6857 1.87637 8.76367C1.99992 9.84164 2.38471 10.8732 2.99734 11.7687C3.60998 12.6642 4.43193 13.3967 5.39185 13.9025C6.35177 14.4083 7.42064 14.6722 8.50567 14.6712C12.1815 14.6712 15.5057 12.2471 14.8982 6.79205Z" fill="#FCFCFD"/>
</svg>
