<svg width="25" height="24" viewBox="0 0 25 24" fill="none" xmlns="http://www.w3.org/2000/svg">
<path fill-rule="evenodd" clip-rule="evenodd" d="M12.5 11.0039C10.7274 11.0039 9.14844 11.0685 7.85838 11.1505C6.63471 11.2283 5.69379 12.1619 5.60597 13.3769C5.5435 14.2412 5.5 15.152 5.5 16.0039C5.5 16.8558 5.5435 17.7666 5.60597 18.6309C5.69379 19.8459 6.63471 20.7796 7.85838 20.8573C9.14844 20.9393 10.7274 21.0039 12.5 21.0039C14.2726 21.0039 15.8516 20.9393 17.1416 20.8573C18.3653 20.7796 19.3062 19.8459 19.394 18.6309C19.4565 17.7666 19.5 16.8558 19.5 16.0039C19.5 15.152 19.4565 14.2412 19.394 13.3769C19.3062 12.1619 18.3653 11.2283 17.1416 11.1505C15.8516 11.0685 14.2726 11.0039 12.5 11.0039ZM7.7315 9.1545C5.51376 9.29547 3.77137 11.0163 3.61117 13.2327C3.54652 14.1273 3.5 15.0889 3.5 16.0039C3.5 16.919 3.54652 17.8805 3.61118 18.7751C3.77137 20.9915 5.51376 22.7123 7.73151 22.8533C9.05778 22.9376 10.6795 23.0039 12.5 23.0039C14.3205 23.0039 15.9422 22.9376 17.2685 22.8533C19.4862 22.7123 21.2286 20.9915 21.3888 18.7751C21.4535 17.8805 21.5 16.919 21.5 16.0039C21.5 15.0889 21.4535 14.1273 21.3888 13.2327C21.2286 11.0163 19.4862 9.29547 17.2685 9.1545C15.9422 9.07019 14.3205 9.00391 12.5 9.00391C10.6795 9.00391 9.05778 9.07019 7.7315 9.1545Z" fill="#58BD7D"/>
<path fill-rule="evenodd" clip-rule="evenodd" d="M13.5 16.7363C14.0978 16.3905 14.5 15.7442 14.5 15.0039C14.5 13.8993 13.6046 13.0039 12.5 13.0039C11.3954 13.0039 10.5 13.8993 10.5 15.0039C10.5 15.7442 10.9022 16.3905 11.5 16.7363V18.0039C11.5 18.5562 11.9477 19.0039 12.5 19.0039C13.0523 19.0039 13.5 18.5562 13.5 18.0039V16.7363Z" fill="#58BD7D"/>
<path fill-rule="evenodd" clip-rule="evenodd" d="M7.5 6.00391C7.5 3.24248 9.73858 1.00391 12.5 1.00391C15.2614 1.00391 17.5 3.24248 17.5 6.00391V10.0039C17.5 10.5562 17.0523 11.0039 16.5 11.0039C15.9477 11.0039 15.5 10.5562 15.5 10.0039V6.00391C15.5 4.34705 14.1569 3.00391 12.5 3.00391C10.8431 3.00391 9.5 4.34705 9.5 6.00391V10.0039C9.5 10.5562 9.05228 11.0039 8.5 11.0039C7.94772 11.0039 7.5 10.5562 7.5 10.0039V6.00391Z" fill="#58BD7D"/>
</svg>
